# xmcd
#
# Track frame offsets:
#	150
#	17615
#	32391
#	48550
#	75393
#	90950
#	105485
#	127175
#	146173
#	164910
#	183778
#
# Disc length: 2986 seconds
#
# Revision: 1
# Processed by: cddbd v1.5.2PL0 Copyright (c) Steve Scherf et al.
# Submitted via: audiograbber 1.83.01
#
DISCID=850ba80b
DTITLE=Dido - 2008-Safe Trip Home
DYEAR=2008
DGENRE=Pop
TTITLE0=don't believe in love
TTITLE1=quiet times
TTITLE2=never want to say it's love
TTITLE3=grafton street
TTITLE4=it comes and it goes
TTITLE5=look no further
TTITLE6=us 2 little gods
TTITLE7=the day before the day
TTITLE8=let's do the things we normally do
TTITLE9=burnin love (with citizen cope)
TTITLE10=northern skies
EXTD=
EXTT0=
EXTT1=
EXTT2=
EXTT3=
EXTT4=
EXTT5=
EXTT6=
EXTT7=
EXTT8=
EXTT9=
EXTT10=
PLAYORDER=
